<?xml version="1.0" encoding="UTF-8" standalone="no"?>
<svg
   id="Layer_1"
   data-name="Layer 1"
   viewBox="0 0 742.26447 161.35544"
   version="1.1"
   sodipodi:docname="Altium_Logo_BLK.svg"
   width="742.26447"
   height="161.35544"
   inkscape:export-filename="Altium_Logo_BLK.png"
   inkscape:export-xdpi="96"
   inkscape:export-ydpi="96"
   inkscape:version="1.3.2 (091e20e, 2023-11-25, custom)"
   xmlns:inkscape="http://www.inkscape.org/namespaces/inkscape"
   xmlns:sodipodi="http://sodipodi.sourceforge.net/DTD/sodipodi-0.dtd"
   xmlns="http://www.w3.org/2000/svg"
   xmlns:svg="http://www.w3.org/2000/svg">
  <sodipodi:namedview
     id="namedview7"
     pagecolor="#505050"
     bordercolor="#eeeeee"
     borderopacity="1"
     inkscape:showpageshadow="0"
     inkscape:pageopacity="0"
     inkscape:pagecheckerboard="0"
     inkscape:deskcolor="#d1d1d1"
     inkscape:zoom="0.62752525"
     inkscape:cx="84.458752"
     inkscape:cy="219.11469"
     inkscape:window-width="1920"
     inkscape:window-height="991"
     inkscape:window-x="-9"
     inkscape:window-y="-9"
     inkscape:window-maximized="1"
     inkscape:current-layer="Layer_1" />
  <defs
     id="defs1">
    <style
       id="style1">.cls-1{fill:#010101;}</style>
  </defs>
  <path
     class="cls-1"
     d="m 201.31,0 h 44.78 l -39.76,158.41 h -44.64 z"
     id="path1" />
  <path
     class="cls-1"
     d="M 267.26,1.58 H 312 l -9.52,36.75 h 18.62 l -6.63,26.92 h -18.75 l -14.24,57.22 q -2.31,9.54 8.86,9.42 h 7.46 l -6.68,26.6 q -13.51,1.13 -25.31,1.14 c -13.64,0.13 -22.88,-1.63 -27.73,-5.35 q -8.18,-5.7 -3.05,-25 z"
     id="path2" />
  <path
     class="cls-1"
     d="m 337.64,38.35 h 44.77 l -30.12,120.06 h -44.65 z"
     id="path3" />
  <path
     class="cls-1"
     d="m 402.74,38.37 h 44.79 l -19.85,79.22 q -3.85,14.43 8.82,14.32 c 8.74,0.08 14.31,-4.7 16.78,-14.32 l 19.85,-79.22 h 44.74 l -30,120.07 h -44.64 l 3.52,-14.53 h -0.5 q -13.53,17.46 -38,17.44 c -10.29,0.13 -18.19,-2.07 -23.71,-6.68 -5.9,-4.52 -7.41,-13.09 -4.5,-25.61 z"
     id="path4" />
  <path
     class="cls-1"
     d="m 714.57,41.5 c -5.83,-4.4 -14,-6.54 -24.58,-6.48 a 56.69,56.69 0 0 0 -20.94,4.08 46.37,46.37 0 0 0 -18.9,14.43 c -1.1,-6.22 -3.93,-10.86 -8.5,-14 -4.57,-3.14 -11.73,-4.55 -21.29,-4.55 q -24.58,0 -38.3,17.93 h -0.51 l 3.58,-14.64 H 540 l -30.15,120.09 h 44.82 l 19.87,-79.22 q 3.69,-14.43 16.64,-14.22 12.86,-0.21 9,14.24 l -19.87,79.2 H 625 l 19.88,-79.22 q 3.75,-14.43 17,-14.22 c 8.64,-0.14 11.61,4.6 9,14.22 l -19.78,79.22 h 19.74 c 14,0 27.35,-9.28 30.48,-22 l 17.19,-68.62 c 3,-12.56 1.71,-21.32 -3.94,-26.24 z"
     id="path5" />
  <path
     class="cls-1"
     d="M 152.23,158.41 146.23,0 H 119.56 C 97.32,0.81 78.65,13 68.09,31.49 L 0,158.41 51.5,158.36 63.57,130.89 h 38.56 l -1.5,27.52 z m -75.3,-57.89 30.5,-66.08 -3.63,66.08 z"
     id="path6" />
  <path
     class="cls-1"
     d="m 742.26,146.31 a 12.24,12.24 0 1 1 -12.2,-11.91 12,12 0 0 1 12.2,11.91 z m -21.42,0 a 9.22,9.22 0 0 0 9.29,9.51 9.12,9.12 0 0 0 9.08,-9.44 c 0,-5.3 -3.85,-9.59 -9.15,-9.59 a 9.26,9.26 0 0 0 -9.22,9.52 z m 7.33,6.24 h -2.76 v -11.91 a 24.06,24.06 0 0 1 4.59,-0.39 7.43,7.43 0 0 1 4.14,0.87 3.32,3.32 0 0 1 1.16,2.62 3.07,3.07 0 0 1 -2.47,2.76 v 0.14 a 3.54,3.54 0 0 1 2.18,2.91 9,9 0 0 0 0.87,3 h -3 a 10.11,10.11 0 0 1 -0.94,-2.9 c -0.22,-1.31 -1,-1.89 -2.47,-1.89 h -1.31 z m 0.07,-6.75 h 1.31 c 1.53,0 2.76,-0.51 2.76,-1.74 0,-1.23 -0.8,-1.82 -2.54,-1.82 a 6.23,6.23 0 0 0 -1.53,0.15 z"
     id="path7" />
</svg>
