<?xml version="1.0" encoding="UTF-8"?>
<svg id="Layer_1" data-name="Layer 1" xmlns="http://www.w3.org/2000/svg" version="1.1" viewBox="0 0 2091.6 678.1">
  <defs>
    <style>
      .cls-1 {
        fill: #3d4647;
      }

      .cls-1, .cls-2 {
        stroke-width: 0px;
      }

      .cls-2 {
        fill: #40aa1d;
      }
    </style>
  </defs>
  <g>
    <path class="cls-1" d="M1685.4,271.8c2.6,0,5,.5,7.2,1.5,2.3,1,4.2,2.3,5.9,4,1.7,1.7,3,3.7,4,5.9,1,2.3,1.5,4.7,1.5,7.2s-.5,5-1.5,7.2c-1,2.2-2.3,4.2-4,5.9s-3.7,3-5.9,4c-2.3,1-4.7,1.5-7.2,1.5s-5-.5-7.2-1.5c-2.2-1-4.2-2.3-5.9-4s-3-3.6-4-5.9c-1-2.2-1.5-4.6-1.5-7.2s.5-5,1.5-7.2c1-2.3,2.3-4.2,4-5.9,1.7-1.7,3.6-3,5.9-4,2.2-1,4.6-1.5,7.2-1.5ZM1685.4,306.2c4.4,0,8.2-1.6,11.3-4.7s2.6-3.1,3.4-5.1c.8-1.9,1.2-4,1.2-6.2s-.4-4.2-1.2-6.2c-.8-1.9-2-3.6-3.4-5.1-3.1-3.1-6.9-4.7-11.3-4.7s-8.2,1.6-11.2,4.7c-3.1,3.1-4.7,6.9-4.7,11.3s.4,4.2,1.2,6.2c.8,1.9,2,3.6,3.4,5.1,3,3.1,6.8,4.7,11.2,4.7ZM1694.5,286.1c0,1.2-.4,2.3-1.1,3.3s-1.7,1.6-3,2c2,.6,3.2,2.2,3.6,4.9.1.7.2,1.3.2,1.8v2.5h-3.7v-2.1c0-1.6-.2-2.7-.5-3.4-.7-1.4-1.9-2.2-3.7-2.2h-5.3v7.6h-3.8v-20.7h8.8c2.9,0,5.1.6,6.4,1.7s2,2.6,2,4.4ZM1685.8,289.9c1.5,0,2.7-.3,3.6-.9.9-.6,1.4-1.4,1.4-2.4s-.4-1.9-1.1-2.5-2.1-.9-4-.9h-4.6v6.7h4.7Z"/>
    <g>
      <path class="cls-1" d="M813.7,269.9c17.3,0,31.4,5.8,42.2,17.4,10.2,11.1,15.3,25.3,15.3,42.4s-5.1,31.3-15.3,42.4c-10.8,11.6-24.9,17.4-42.2,17.4s-31.4-5.8-42.2-17.4c-10.2-11.1-15.3-25.3-15.3-42.4s5.1-31.3,15.3-42.4c10.8-11.6,24.9-17.4,42.2-17.4ZM813.7,373.8c12.5,0,22.4-4.3,29.7-13,7-8.2,10.4-18.6,10.4-31.1s-3.5-22.9-10.4-31.1c-7.3-8.7-17.2-13-29.7-13s-22.4,4.3-29.7,13c-7,8.2-10.4,18.6-10.4,31.1s3.5,22.9,10.4,31.1c7.3,8.7,17.2,13,29.7,13Z"/>
      <path class="cls-1" d="M911.5,271.7v18.1c4.2-5.6,9.3-10.3,15.3-14.1,6-3.9,12.9-5.8,20.6-5.8s14.4,1.1,19.9,3.2c5.6,2.2,10.4,5.4,14.6,9.7,9.6,9.4,14.4,21.9,14.4,37.3v67.5h-17.4v-67c0-10.7-3-19.2-9-25.5-6-6.3-13.8-9.5-23.4-9.5s-18,3.2-24.8,9.7c-6.8,6.6-10.2,15.2-10.2,25.5v66.8h-17.4v-115.9h17.4Z"/>
      <path class="cls-1" d="M1093.6,302.8c-1.5-12.1-11.2-18.1-29.1-18.1s-26.8,5.6-26.8,16.7,1.9,8.2,5.7,10.6c3.8,2.4,8.5,4.4,14.3,5.9,5.7,1.5,11.9,3,18.7,4.3,6.7,1.3,12.9,3.2,18.7,5.6,5.7,2.4,10.5,5.7,14.3,9.9,3.8,4.2,5.7,9.9,5.7,17.2,0,11.3-4.3,19.9-12.8,25.9-8.5,6-20,8.9-34.6,8.9s-27.8-3.9-36.9-11.6c-8.4-6.8-12.8-15.7-13.5-26.7h18.1c1.1,10.7,7.1,17.9,18.1,21.6,4,1.2,8,1.9,11.9,1.9s7.6-.2,11-.7c3.4-.5,6.7-1.3,10-2.6,7.4-2.9,11.1-8,11.1-15.1s-1.9-8.5-5.7-11c-3.8-2.6-8.5-4.6-14.3-6.3-5.7-1.6-11.9-3.1-18.7-4.4-6.7-1.3-13-3.1-18.7-5.4-5.7-2.3-10.5-5.5-14.3-9.5-3.8-4-5.7-9.6-5.7-16.7,0-10.5,3.8-18.7,11.5-24.5,7.7-5.8,19-8.7,34-8.7s25.4,3.4,33.6,10.2c6.8,5.7,10.7,13.3,11.8,22.7h-17.6Z"/>
      <path class="cls-1" d="M1154.6,225.4v64.5c4.2-5.6,9.3-10.3,15.3-14.1,6-3.9,12.9-5.8,20.6-5.8s14.4,1.1,19.9,3.2c5.6,2.2,10.4,5.4,14.6,9.7,9.6,9.4,14.4,21.9,14.4,37.3v67.5h-17.4v-67c0-10.7-3-19.2-9-25.5-6-6.3-13.8-9.5-23.4-9.5s-18,3.2-24.8,9.7c-6.8,6.6-10.2,15.2-10.2,25.5v66.8h-17.4v-162.3h17.4Z"/>
      <path class="cls-1" d="M1358.9,369.1c-9.3,13.6-23.1,20.4-41.5,20.4s-30.3-5.8-40.8-17.4c-10.2-11.4-15.3-25.6-15.3-42.4s5.1-31,15.3-42.4c10.5-11.6,24.5-17.4,42-17.4s30.9,6.9,40.3,20.6v-18.8h17.4v115.9h-17.4v-18.6ZM1319.7,373.8c12.5,0,22.4-4.3,29.7-13,7-8.2,10.4-18.6,10.4-31.1s-3.5-22.9-10.4-31.1c-7.3-8.7-17.2-13-29.7-13s-22.4,4.3-30.1,13c-7.3,8.2-10.9,18.6-10.9,31.1s3.6,22.9,10.9,31.1c7.7,8.7,17.8,13,30.1,13Z"/>
      <path class="cls-1" d="M1423.8,290.3c9.3-13.6,23.1-20.4,41.5-20.4s30.2,5.8,40.6,17.4c10.4,11.4,15.5,25.6,15.5,42.4s-5.2,31-15.5,42.4c-10.4,11.6-24.3,17.4-41.7,17.4s-30.9-6.9-40.4-20.6v64.7h-17.4v-161.9h17.4v18.6ZM1463,285.6c-12.5,0-22.4,4.3-29.7,13-7,8.2-10.4,18.6-10.4,31.1s3.5,22.9,10.4,31.1c7.3,8.7,17.2,13,29.7,13s22.4-4.3,30.1-13c7.3-8.2,10.9-18.6,10.9-31.1s-3.6-22.9-10.9-31.1c-7.7-8.7-17.8-13-30.1-13Z"/>
      <path class="cls-1" d="M1595.9,373.8c15.6,0,26.8-6.5,33.6-19.5h19c-4,10.5-10.4,19-19.1,25.5-8.7,6.5-20,9.7-33.7,9.7s-31.7-5.8-42.7-17.4c-10.7-11.3-16-25.4-16-42.4s5.1-31.3,15.3-42.4c10.8-11.6,24.9-17.4,42.2-17.4s31.4,5.8,42.2,17.4c10.2,11.1,15.3,25.3,15.3,42.4v7h-97.2c1.2,10.7,5.5,19.5,12.8,26.4,7.4,7.1,16.8,10.7,28.3,10.7ZM1594.5,285.6c-10.7,0-19.6,3.3-26.9,10-6.8,6.3-11,14.6-12.5,24.8h78.8c-1.5-10.2-5.7-18.5-12.5-24.8-7.3-6.6-16.2-10-26.9-10Z"/>
    </g>
  </g>
  <polygon class="cls-2" points="558.7 208.2 508.9 179.5 380.1 253.9 380.1 320.5 431.2 350.8 431.2 282 558.7 208.2"/>
  <polygon class="cls-2" points="380.1 342.4 380.1 403.4 509.6 478.1 566.3 445.5 566.3 382.9 508.9 420.3 380.1 342.4"/>
  <polygon class="cls-2" points="585.5 285.3 525.3 250.6 578.5 219.7 639 254.3 639 403.4 585.4 434.3 585.5 285.3"/>
  <polygon class="cls-1" points="528.6 274.2 506.8 261.6 450.2 294.3 450.2 323.5 472.5 336.7 472.5 306.7 528.6 274.2"/>
  <polygon class="cls-1" points="450.2 335.3 450.2 362 508.9 397.3 533.1 382.4 533.1 355.6 508.9 371 450.2 335.3"/>
  <polygon class="cls-1" points="542.8 309.7 516 294.2 539.5 280.5 566.3 295.9 566.3 361.4 542.8 376.2 542.8 309.7"/>
</svg>