<?xml version="1.0" encoding="UTF-8" standalone="no"?>
<!-- Generator: Adobe Illustrator 25.0.1, SVG Export Plug-In . SVG Version: 6.00 Build 0)  -->

<svg
   version="1.1"
   id="Layer_1"
   x="0px"
   y="0px"
   viewBox="0 0 768 106.67237"
   xml:space="preserve"
   sodipodi:docname="MacDonLogowhite.svg"
   inkscape:version="1.3.2 (091e20e, 2023-11-25, custom)"
   width="8in"
   height="1.1111704in"
   xmlns:inkscape="http://www.inkscape.org/namespaces/inkscape"
   xmlns:sodipodi="http://sodipodi.sourceforge.net/DTD/sodipodi-0.dtd"
   xmlns="http://www.w3.org/2000/svg"
   xmlns:svg="http://www.w3.org/2000/svg"><defs
   id="defs4"><clipPath
     clipPathUnits="userSpaceOnUse"
     id="clipPath4"><path
       d="M 0,72 H 360 V 0 H 0 Z"
       transform="translate(-276.84771,-24.638701)"
       id="path4" /></clipPath><clipPath
     clipPathUnits="userSpaceOnUse"
     id="clipPath6"><path
       d="M 0,72 H 360 V 0 H 0 Z"
       transform="translate(-344.23441,-27.205101)"
       id="path6" /></clipPath><clipPath
     clipPathUnits="userSpaceOnUse"
     id="clipPath8"><path
       d="M 0,72 H 360 V 0 H 0 Z"
       transform="translate(-113.9653,-18.4785)"
       id="path8" /></clipPath><clipPath
     clipPathUnits="userSpaceOnUse"
     id="clipPath10"><path
       d="M 0,72 H 360 V 0 H 0 Z"
       transform="translate(-347.85251,-39.389201)"
       id="path10" /></clipPath></defs><sodipodi:namedview
   id="namedview4"
   pagecolor="#ffffff"
   bordercolor="#000000"
   borderopacity="0.25"
   inkscape:showpageshadow="2"
   inkscape:pageopacity="0.0"
   inkscape:pagecheckerboard="true"
   inkscape:deskcolor="#d1d1d1"
   inkscape:zoom="0.87916665"
   inkscape:cx="367.96209"
   inkscape:cy="-17.630332"
   inkscape:window-width="1920"
   inkscape:window-height="991"
   inkscape:window-x="-9"
   inkscape:window-y="-9"
   inkscape:window-maximized="1"
   inkscape:current-layer="group-MC0"
   inkscape:document-units="in" />
<style
   type="text/css"
   id="style1">
	.st0{fill:#FFFFFF;}
</style>





<g
   inkscape:groupmode="layer"
   id="layer1"
   inkscape:label="Layer 1"
   transform="translate(80.999998,-27.000001)"><g
     id="g1"
     inkscape:label="old white"
     style="display:none"><polygon
       class="st0"
       points="18.94,29.76 37.71,60.49 46.52,59.9 65.58,30.35 66.62,60.78 83.67,60.78 81.12,14.29 66.15,14.29 45.86,46.41 26.05,14.29 10.88,14.29 7,60.78 18.94,60.78 "
       id="polygon1"
       style="display:inline;fill:#ffffff"
       transform="matrix(1.1386549,0,0,1.1386549,-0.97058483,64.030394)" /><path
       class="st0"
       d="m 305.09987,97.085548 c -7.4468,0 -29.22928,3.176842 -29.22928,18.947222 0,3.92836 1.51442,8.68793 5.49971,12.19499 3.98529,3.42735 10.13403,5.93239 22.11268,5.93239 22.11268,0 31.16499,-8.68793 31.16499,-18.61701 0,-2.25453 -0.43269,-6.76361 -4.53185,-11.10188 -6.58143,-6.934409 -16.82932,-7.355712 -25.01625,-7.355712 z m 9.16617,20.871542 c 0,8.09584 -3.99668,9.26865 -7.86811,9.26865 -9.8152,0 -10.13402,-12.7757 -10.13402,-14.27873 0,-4.08777 1.9471,-8.93844 7.4468,-8.93844 2.26592,0 5.82992,0 8.51714,5.08979 1.28668,2.43672 2.03819,5.69327 2.03819,8.85873 z"
       id="path1"
       style="fill:#ffffff;stroke-width:1.13865" /><path
       class="st0"
       d="m 390.98861,115.03075 c 0,-5.93239 0,-9.42806 -1.51441,-12.1039 -2.80109,-4.679874 -8.51714,-5.841302 -12.18361,-5.841302 -3.23378,0 -9.91768,0.501008 -20.16558,5.089792 l 0.21635,-4.178868 h -18.65117 v 35.229988 h 18.66256 v -22.9439 c 2.91495,-1.42332 6.6839,-2.67584 10.13402,-2.67584 4.96454,0 4.96454,2.75554 4.96454,7.76563 v 17.86549 H 391 v -18.20709 z"
       id="path2"
       style="fill:#ffffff;stroke-width:1.13865" /><path
       class="st0"
       d="m 221.16961,87.156477 v 38.816743 h 4.63433 c 14.77974,0 28.89906,0 28.89906,-20.19974 0,-18.696709 -15.21243,-18.696709 -23.94591,-18.696709 -2.68723,-0.01139 -6.3537,0.07971 -9.58748,0.07971 z m -61.41904,42.710943 -0.54656,0.22773 c -0.31882,0.0797 -13.90298,4.39521 -21.3384,4.39521 -6.14873,0 -7.33293,-2.33424 -7.87949,-3.25655 -7.54928,2.25454 -14.88222,2.92634 -18.33234,2.92634 -6.79777,0 -13.69802,-2.17483 -13.69802,-10.27066 0,-8.43744 5.71605,-9.94046 30.62982,-12.77571 -0.21635,-4.00807 -0.21635,-4.17887 -1.08173,-5.01009 -1.61688,-1.58273 -5.18088,-1.67382 -6.6839,-1.67382 -9.06369,0 -12.39995,3.08576 -14.23319,4.67987 l -4.3155,-1.17281 -0.53517,-5.5908 c -0.11386,-1.50302 0.21635,-1.67382 3.01744,-2.425331 9.485,-2.835251 17.25062,-2.835251 21.56612,-2.835251 20.16558,0 20.49579,6.683902 20.27945,14.028232 l -0.21635,9.26865 c -0.11386,4.42937 -0.21634,5.34029 2.48227,5.34029 0.89954,0 3.60954,-0.43269 6.27399,-0.9337 -1.04756,-1.95848 -1.61689,-4.21302 -1.61689,-6.74083 0,-12.43412 13.59554,-20.951255 29.87831,-20.951255 2.91496,0 9.59886,0.33021 14.23318,2.334242 1.29807,0.580713 1.51442,1.002013 1.51442,2.254533 0,1.75353 0,1.92433 -1.1842,3.08576 l -4.09916,4.17886 h -3.45013 c -1.1842,-1.00201 -3.23378,-2.58474 -9.59886,-2.58474 -3.01743,0 -7.87949,0.0797 -7.87949,7.01411 0,2.08374 0.53516,5.93239 2.91496,8.51714 2.04958,2.33424 5.4997,3.00605 9.06369,3.00605 4.99869,0 12.93512,-2.63029 16.53327,-4.00807 V 80.301774 c 2.26592,0 24.48108,-0.33021 26.84948,-0.33021 18.01352,0 31.38133,0.33021 40.66137,8.938441 5.93239,5.431384 6.90025,12.445495 6.90025,16.282765 0,13.02621 -9.70134,22.04436 -23.29688,25.80192 -6.90025,1.92433 -16.18029,2.25454 -26.84948,2.25454 h -24.26474 v -5.68189 c -2.04958,1.02479 -4.86206,1.98126 -6.93441,2.92634 -7.54928,3.33626 -15.09857,3.67786 -18.44621,3.67786 -6.51311,-0.0114 -12.26332,-1.48025 -16.31692,-4.30412 z m -30.94865,-4.89621 v -7.76563 c -12.61629,0.83122 -12.61629,2.00403 -12.61629,4.50907 0,3.50706 0.96785,4.25857 5.06701,4.25857 3.45013,0 6.46756,-0.6718 7.54928,-1.00201 z"
       id="path3"
       style="fill:#ffffff;stroke-width:1.13865" /></g><g
     id="group-MC0"
     transform="translate(-90.333732,8.3326651)"
     inkscape:label="MacDon RGB"><path
       id="path2-9"
       d="M 17.985072,19.320137 9.3337338,122.89112 H 35.924957 V 53.789583 l 41.824087,68.448727 19.646536,-1.30561 42.45907,-65.835279 2.32157,67.793699 h 37.98524 l -5.697,-103.570983 H 141.12015 L 95.918413,90.872477 51.768292,19.320137 Z"
       style="fill:#b3122b;fill-opacity:1;fill-rule:nonzero;stroke:none;stroke-width:2.228" /><path
       id="path3-7"
       d="m 0,0 c 0,-7.113 -3.506,-8.139 -6.914,-8.139 -8.621,0 -8.904,11.219 -8.904,12.537 0,3.594 1.705,7.847 6.535,7.847 1.99,0 5.115,0 7.482,-4.474 C -0.662,5.645 0,2.785 0,0 m -8.051,18.33 c -6.535,0 -25.67,-2.786 -25.67,-16.644 0,-3.446 1.328,-7.625 4.832,-10.706 3.504,-3.005 8.903,-5.205 19.418,-5.205 19.416,0 27.373,7.625 27.373,16.352 0,1.978 -0.381,5.937 -3.978,9.751 -5.779,6.085 -14.778,6.452 -21.975,6.452"
       style="fill:#b3122b;fill-opacity:1;fill-rule:evenodd;stroke:none"
       transform="matrix(2.2280037,0,0,-2.2280037,610.55476,92.995319)"
       clip-path="url(#clipPath4)" /><path
       id="path5"
       d="m 0,0 c 0,5.205 0,8.284 -1.326,10.631 -2.463,4.106 -7.483,5.133 -10.703,5.133 -2.842,0 -8.715,-0.44 -17.713,-4.473 l 0.191,3.666 h -16.387 v -30.941 h 16.387 V 4.178 c 2.557,1.248 5.871,2.347 8.903,2.347 4.357,0 4.357,-2.42 4.357,-6.818 V -15.984 H 0 Z"
       style="fill:#b3122b;fill-opacity:1;fill-rule:nonzero;stroke:none"
       transform="matrix(2.2280037,0,0,-2.2280037,760.69257,87.27737)"
       clip-path="url(#clipPath6)" /><path
       id="path7"
       d="M 0,0 V 6.82 C -11.082,6.086 -11.082,5.061 -11.082,2.859 c 0,-3.08 0.853,-3.738 4.452,-3.738 3.03,0 5.682,0.586 6.63,0.879 M 27.182,-4.295 26.701,-4.498 C 26.418,-4.57 14.492,-8.357 7.957,-8.357 c -5.4,0 -6.442,2.052 -6.916,2.859 -6.629,-1.981 -13.071,-2.566 -16.102,-2.566 -5.966,0 -12.029,1.906 -12.029,9.017 0,7.406 5.021,8.727 26.9,11.219 -0.19,3.519 -0.19,3.666 -0.947,4.399 -1.421,1.393 -4.547,1.467 -5.872,1.467 -7.956,0 -10.893,-2.714 -12.503,-4.106 l -3.788,1.025 -0.474,4.914 c -0.096,1.32 0.189,1.466 2.652,2.126 8.334,2.493 15.155,2.493 18.943,2.493 17.711,0 17.996,-5.866 17.807,-12.318 l -0.19,-8.139 c -0.095,-3.887 -0.189,-4.693 2.179,-4.693 0.787,0 3.171,0.375 5.512,0.822 -0.919,1.717 -1.421,3.695 -1.421,5.924 0,10.925 11.935,18.404 26.236,18.404 2.558,0 8.43,-0.293 12.503,-2.053 1.137,-0.514 1.327,-0.879 1.327,-1.979 0,-1.541 0,-1.687 -1.042,-2.713 l -3.601,-3.667 h -3.03 c -1.042,0.879 -2.841,2.274 -8.429,2.274 -2.652,0 -6.916,-0.075 -6.916,-6.159 0,-1.834 0.474,-5.207 2.558,-7.48 1.8,-2.053 4.831,-2.639 7.957,-2.639 4.393,0 11.364,2.311 14.519,3.518 v 35.636 c 1.989,0 21.501,0.293 23.585,0.293 15.818,0 27.562,-0.293 35.707,-7.845 5.21,-4.766 6.062,-10.925 6.062,-14.298 0,-11.439 -8.523,-19.357 -20.459,-22.657 -6.06,-1.686 -14.207,-1.979 -23.584,-1.979 H 63.79 v 4.988 c -1.798,-0.902 -4.266,-1.738 -6.089,-2.568 -6.631,-2.933 -13.26,-3.226 -16.197,-3.226 -5.712,0 -10.755,1.283 -14.322,3.769 M 81.123,33.216 V -0.879 h 4.072 c 12.976,0 25.385,0 25.385,17.743 0,16.425 -13.356,16.425 -21.026,16.425 -2.369,0 -5.59,-0.073 -8.431,-0.073"
       style="fill:#b3122b;fill-opacity:1;fill-rule:nonzero;stroke:none"
       transform="matrix(2.2280037,0,0,-2.2280037,247.65216,106.72027)"
       clip-path="url(#clipPath8)" /><path
       id="path9"
       d="m 0,0 h 0.604 c 0.509,0 0.977,0.025 0.977,0.611 0,0.494 -0.425,0.571 -0.816,0.571 H 0 Z m -0.578,1.649 h 1.436 c 0.884,0 1.301,-0.349 1.301,-1.063 0,-0.671 -0.425,-0.951 -0.977,-1.011 l 1.062,-1.64 H 1.623 L 0.612,-0.467 H 0 v -1.598 h -0.578 z m 1.241,-4.573 c 1.471,0 2.609,1.173 2.609,2.729 0,1.521 -1.138,2.694 -2.609,2.694 -1.487,0 -2.626,-1.173 -2.626,-2.694 0,-1.556 1.139,-2.729 2.626,-2.729 m 0,5.89 c 1.733,0 3.188,-1.368 3.188,-3.161 0,-1.827 -1.455,-3.196 -3.188,-3.196 -1.742,0 -3.204,1.369 -3.204,3.196 0,1.793 1.462,3.161 3.204,3.161"
       style="fill:#b3122b;fill-opacity:1;fill-rule:nonzero;stroke:none"
       transform="matrix(2.2280037,0,0,-2.2280037,768.75371,60.131151)"
       clip-path="url(#clipPath10)" /></g></g></svg>
