<?xml version="1.0" encoding="UTF-8" standalone="no"?>
<svg
   xmlns:dc="http://purl.org/dc/elements/1.1/"
   xmlns:cc="http://creativecommons.org/ns#"
   xmlns:rdf="http://www.w3.org/1999/02/22-rdf-syntax-ns#"
   xmlns:svg="http://www.w3.org/2000/svg"
   xmlns="http://www.w3.org/2000/svg"
   xmlns:sodipodi="http://sodipodi.sourceforge.net/DTD/sodipodi-0.dtd"
   xmlns:inkscape="http://www.inkscape.org/namespaces/inkscape"
   inkscape:version="1.0 (4035a4fb49, 2020-05-01)"
   sodipodi:docname="gobbler-icon-test.svg"
   id="svg2092"
   version="1.1"
   aria-hidden="true"
   height="120"
   width="282.61679">
  <metadata
     id="metadata2098">
    <rdf:RDF>
      <cc:Work
         rdf:about="">
        <dc:format>image/svg+xml</dc:format>
        <dc:type
           rdf:resource="http://purl.org/dc/dcmitype/StillImage" />
      </cc:Work>
    </rdf:RDF>
  </metadata>
  <defs
     id="defs2096" />
  <sodipodi:namedview
     inkscape:current-layer="svg2092"
     inkscape:window-maximized="1"
     inkscape:window-y="176"
     inkscape:window-x="-8"
     inkscape:cy="71.86734"
     inkscape:cx="137.28903"
     inkscape:zoom="2.2605932"
     showgrid="false"
     id="namedview2094"
     inkscape:window-height="1017"
     inkscape:window-width="1920"
     inkscape:pageshadow="2"
     inkscape:pageopacity="0"
     guidetolerance="10"
     gridtolerance="10"
     objecttolerance="10"
     borderopacity="1"
     bordercolor="#666666"
     pagecolor="#ffffff" />
  <g
     transform="scale(2.4)"
     id="g2090"
     fill-rule="evenodd"
     fill="none">
    <path
       id="path2084"
       fill="#00abec"
       d="M 48.26,41.146 V 0 H 0 v 50 c 12.09,-4.798 29.08,-8.066 48.26,-8.854" />
    <path
       id="path2086"
       fill="#ffffff"
       d="m 35.315,8.63 4.45,-0.003 -0.058,25.168 c -1.485,0.1 -2.97,0.209 -4.454,0.327 L 35.315,8.631 m -6.539,26.067 c -1.482,0.146 -2.964,0.3 -4.445,0.465 0.02,-8.84 0.04,-17.68 0.058,-26.52 l 8.614,-0.01 a 4125.49,4125.49 0 0 1 -0.008,3.522 c -1.388,0.018 -2.777,0.037 -4.164,0.057 l -0.019,7.669 a 798.23,798.23 0 0 1 3.47,-0.141 l -0.009,3.53 c -1.157,0.058 -2.313,0.12 -3.47,0.186 l -0.027,11.242 m -7.669,-26.05 -0.05,26.894 a 367.1,367.1 0 0 0 -5.21,0.667 c -0.823,-3.863 -1.646,-7.771 -2.47,-11.728 -0.364,-1.921 -0.852,-4.767 -1.176,-6.637 0.08,1.88 0.24,4.833 0.24,6.754 l -0.01,12.09 A 336.32,336.32 0 0 0 8.696,37.253 V 8.67 l 5.756,-0.011 c 0.65,3.104 1.3,6.177 1.947,9.222 0.406,1.907 0.85,4.736 1.174,6.505 -0.079,-1.788 -0.238,-4.75 -0.236,-6.626 l 0.014,-9.106 3.756,-0.006" />
    <path
       id="path2088"
       fill="#003594"
       d="m 111.228,10.791 0.015,12.397 1.384,0.103 c 1.874,0.143 2.607,-0.44 2.606,-2.297 l -0.004,-7.614 c -0.001,-1.855 -0.736,-2.55 -2.613,-2.572 -0.463,-0.006 -0.926,-0.01 -1.388,-0.017 m 0.03,25.506 a 435.44,435.44 0 0 0 -2.522,-0.337 c -0.014,-9.102 -0.03,-18.204 -0.042,-27.306 l 4.083,0.007 c 2.49,0 4.98,0.854 4.98,4.87 v 7.552 c 0,4.015 -2.481,4.587 -4.965,4.37 -0.515,-0.045 -1.031,-0.089 -1.547,-0.132 l 0.013,10.976 m -10.983,-3.026 c 1.468,0.147 2.119,-0.54 2.115,-2.022 -0.016,-7.535 -0.032,-15.069 -0.05,-22.604 0.79,0 1.58,0.002 2.369,0.003 l 0.045,22.643 c 0.006,3.15 -1.661,4.32 -4.556,4.002 -2.896,-0.313 -4.615,-1.796 -4.621,-4.82 -0.02,-7.28 -0.037,-14.558 -0.054,-21.837 l 2.53,0.003 0.054,22.224 c 0.004,1.454 0.658,2.258 2.168,2.408 M 87.31,32.213 c 1.512,0.1 2.164,-0.614 2.16,-2.1 L 89.429,12.506 c -0.004,-1.486 -0.66,-2.25 -2.171,-2.258 -1.51,-0.007 -2.121,0.742 -2.118,2.21 l 0.039,17.404 c 0.003,1.468 0.618,2.254 2.13,2.351 m -4.7,-19.53 c -0.006,-3.023 1.705,-4.376 4.645,-4.379 2.94,-0.005 4.7,1.382 4.706,4.49 l 0.043,17.231 c 0.007,3.111 -1.745,4.343 -4.69,4.132 C 84.37,33.95 82.649,32.51 82.643,29.485 L 82.609,12.682 m -8.625,7.336 c 1.922,0.03 2.534,-0.45 2.53,-2.07 -10e-4,-1.76 -0.004,-3.52 -0.007,-5.28 -0.003,-1.619 -0.615,-2.15 -2.535,-2.155 -0.517,0 -1.035,-0.002 -1.553,-0.004 0.004,3.163 0.008,6.325 0.01,9.488 0.519,0.006 1.037,0.014 1.555,0.021 m -1.552,1.87 0.013,11.238 c -0.846,-0.023 -1.693,-0.042 -2.54,-0.058 -0.006,-8.15 -0.012,-16.3 -0.02,-24.45 l 4.329,10e-4 c 2.49,0 4.819,0.565 4.826,4.032 l 0.008,4.95 c 0.004,2.156 -0.975,3.052 -2.324,3.412 1.39,0.415 2.333,1.393 2.337,3.585 l 0.006,3.782 c 0.007,3.428 0.335,4.185 0.705,5.016 A 359.04,359.04 0 0 0 77.03,33.277 c -0.165,-0.57 -0.493,-1.427 -0.497,-3.644 l -0.007,-4.857 c -0.004,-2.147 -0.658,-2.833 -3.03,-2.872 l -1.064,-0.016 m -8.773,-0.45 c -0.723,-0.002 -1.446,-0.002 -2.168,0 v -1.776 c 1.527,-0.004 3.053,-0.002 4.58,0.004 0,4.45 0.003,8.9 0.005,13.35 -0.437,-0.005 -0.874,-0.008 -1.311,-0.01 l -0.246,-1.465 c -0.614,1.218 -1.883,1.771 -3.562,1.781 -2.458,0.015 -4.136,-1.136 -4.133,-4.245 l 0.012,-16.479 c 0.002,-2.969 1.718,-4.295 4.617,-4.294 2.858,0 4.573,1.323 4.574,4.286 0,1.603 0,3.207 0.002,4.81 -0.79,-0.003 -1.58,-0.004 -2.37,-0.005 l -10e-4,-5.05 c 0,-1.429 -0.654,-2.16 -2.165,-2.16 -1.511,10e-4 -2.123,0.733 -2.124,2.163 l -0.008,16.943 c -10e-4,1.43 0.614,2.154 2.128,2.146 1.515,-0.005 2.17,-0.733 2.17,-2.163 v -7.837" />
  </g>
</svg>
