<?xml version="1.0" encoding="UTF-8" standalone="no"?>
<!-- Generator: Adobe Illustrator 28.0.0, SVG Export Plug-In . SVG Version: 6.00 Build 0)  -->

<svg
   version="1.1"
   id="Layer_1"
   x="0px"
   y="0px"
   viewBox="0 0 576 147.28381"
   xml:space="preserve"
   sodipodi:docname="PTx_TrimUnstacked_MDark_RGB.svg"
   width="576"
   height="147.28381"
   inkscape:version="1.3.2 (091e20e, 2023-11-25, custom)"
   xmlns:inkscape="http://www.inkscape.org/namespaces/inkscape"
   xmlns:sodipodi="http://sodipodi.sourceforge.net/DTD/sodipodi-0.dtd"
   xmlns="http://www.w3.org/2000/svg"
   xmlns:svg="http://www.w3.org/2000/svg"><defs
   id="defs16" /><sodipodi:namedview
   id="namedview16"
   pagecolor="#ffffff"
   bordercolor="#eeeeee"
   borderopacity="1"
   inkscape:showpageshadow="0"
   inkscape:pageopacity="0"
   inkscape:pagecheckerboard="true"
   inkscape:deskcolor="#d1d1d1"
   inkscape:zoom="1.7633475"
   inkscape:cx="241.3024"
   inkscape:cy="80.812204"
   inkscape:window-width="1920"
   inkscape:window-height="991"
   inkscape:window-x="-9"
   inkscape:window-y="-9"
   inkscape:window-maximized="1"
   inkscape:current-layer="Layer_1" />
<style
   type="text/css"
   id="style1">
	.st0{fill:#0C9F50;}
	.st1{fill:#013B27;}
	.st2{fill:#FF6105;}
</style>
<g
   id="g16"
   transform="matrix(1.2268207,0,0,1.2268207,-4.8996152,-4.8419573)">
	<g
   id="g7">
		<path
   class="st0"
   d="m 34,12 c 28.7,-16.6 65.4,-6.7 82,22 16.6,28.7 6.7,65.4 -22,82 z"
   id="path1" />
		<path
   class="st1"
   d="M 73.8,95 H 12.6 c 2.4,4.1 5.3,7.7 8.5,11 h 59.1 z"
   id="path2" />
		<path
   class="st1"
   d="m 63.4,77 h -58 c 0.8,3.7 2,7.4 3.6,11 h 60.8 z"
   id="path3" />
		<path
   class="st2"
   d="M 59.4,70 28.1,15.9 c -3.1,2.3 -5.9,4.8 -8.4,7.5 l 27,46.6 z"
   id="path4" />
		<path
   class="st2"
   d="M 38.6,70 15.1,29.3 c -2.5,3.5 -4.6,7.2 -6.3,11.2 L 25.9,70 Z"
   id="path5" />
		<path
   class="st2"
   d="M 17.8,70 5.8,49.3 C 4.1,56 3.6,63 4.3,70 Z"
   id="path6" />
		<path
   class="st1"
   d="m 29.4,113 c 0.1,0.1 0.3,0.2 0.4,0.3 0.6,0.4 1.2,0.8 1.9,1.2 0.2,0.1 0.4,0.3 0.6,0.4 6.3,3.9 13.3,6.6 20.5,8 v 0 c 3.6,0.7 7.4,1.1 11.2,1.1 4.7,0 9.2,-0.5 13.6,-1.6 0.6,-0.1 1.2,-0.3 1.9,-0.5 0.2,-0.1 0.4,-0.1 0.7,-0.2 0.7,-0.2 1.5,-0.4 2.2,-0.6 0.1,0 0.2,-0.1 0.4,-0.1 0.8,-0.3 1.6,-0.5 2.4,-0.8 0,0 0.1,0 0.1,-0.1 0.9,-0.3 1.7,-0.7 2.6,-1.1 l -3.5,-6.1 h -55 z"
   id="path7" />
	</g>
	<g
   id="g9">
		<path
   class="st1"
   d="m 168.1,42.2 h -24 v 43.4 h 9.6 V 72.2 h 14.5 c 10.8,0 16.6,-5.2 16.6,-15 -0.2,-9.7 -6,-15 -16.7,-15 z m -14.5,8.9 h 14 c 4.6,0 7.2,1 7.2,6 0,4.6 -1.9,6.2 -7.2,6.2 h -14 z"
   id="path8" />
		<polygon
   class="st1"
   points="202.7,85.5 212.3,85.5 212.3,51.1 227.9,51.1 227.9,42.2 187.2,42.2 187.2,51.1 202.7,51.1 "
   id="polygon8" />
		<polygon
   class="st1"
   points="250.7,69.8 263.8,54.4 252.1,54.4 245.1,63 238.1,54.4 226.1,54.4 239.1,69.8 225,85.8 236.8,85.8 244.8,76.5 252.7,85.8 264.8,85.8 "
   id="polygon9" />
	</g>
	<g
   id="g15">
		<path
   class="st1"
   d="m 275,42.2 h 36.9 v 4.4 h -15.7 v 38.9 h -5.5 V 46.6 H 275 Z"
   id="path9" />
		<path
   class="st1"
   d="m 310.4,54.9 h 5.1 v 4.3 h 0.6 c 1.3,-2.6 3.8,-5.2 10.1,-4.6 v 4.6 c -6.4,-0.7 -10.6,1.6 -10.6,9.3 v 17.1 h -5.3 V 54.9 Z"
   id="path10" />
		<path
   class="st1"
   d="m 331.2,43 h 5.4 v 6.3 h -5.4 z m 0.1,11.9 h 5.3 v 30.7 h -5.3 z"
   id="path11" />
		<path
   class="st1"
   d="m 344.5,54.9 h 5.1 v 3.9 h 0.6 c 1.3,-2.1 3.5,-4.6 9.1,-4.6 5.3,0 7.9,2.8 8.8,5.4 h 0.6 c 1.4,-2.7 4.2,-5.4 9.9,-5.4 5.6,0 10.2,3.1 10.2,10.3 v 21.1 h -5.3 V 64.8 c 0,-4 -2.2,-6.5 -6.3,-6.5 -4.6,0 -7.9,3 -7.9,9 V 85.5 H 364 V 64.8 c 0,-4 -2.1,-6.5 -6.2,-6.5 -4.7,0 -8,3 -8,9 v 18.2 h -5.2 V 54.9 Z"
   id="path12" />
		<path
   class="st1"
   d="m 396.6,42.2 h 5.3 V 59 h 0.6 c 1.4,-2.3 4.3,-4.8 10.1,-4.8 8,0 14.1,5.4 14.1,16 0,10.6 -6.1,16 -14.1,16 -5.8,0 -8.9,-2.6 -10.3,-5.1 h -0.6 v 4.4 h -5.1 z M 411.5,82 c 5.8,0 9.8,-4.2 9.8,-11.8 0,-7.6 -4,-11.9 -9.8,-11.9 -5.9,0 -9.8,4.2 -9.8,11.9 0,7.6 4,11.8 9.8,11.8 z"
   id="path13" />
		<path
   class="st1"
   d="m 433.2,42.2 h 5.3 v 43.4 h -5.3 z"
   id="path14" />
		<path
   class="st1"
   d="m 459.5,54.1 c 9.1,0 14,5.7 14,14.7 v 2.5 H 450 c 0.1,6.7 3.6,10.9 9.5,10.9 5.6,0 8.1,-3.4 8.6,-6.3 h 4.7 v 0.9 c -0.7,3.8 -4.1,9.4 -13.3,9.4 -9,0 -14.7,-5.6 -14.7,-16.1 0,-10.3 5.7,-16 14.7,-16 z m 8.9,13.4 c -0.1,-5.6 -3,-9.3 -8.9,-9.3 -5.8,0 -9,3.8 -9.4,9.3 z"
   id="path15" />
	</g>
</g>
</svg>
